<svg width="40" height="24" viewBox="0 0 40 24" fill="none" xmlns="http://www.w3.org/2000/svg">
<path d="M28.3534 0.394256C27.7993 -0.131419 26.9106 -0.131419 26.3565 0.394256C25.8024 0.91993 25.8024 1.76299 26.3565 2.28867L35.1803 10.6598H1.4114C0.627287 10.6598 0 11.2549 0 11.9988C0 12.7426 0.627287 13.3377 1.4114 13.3377H35.1803L26.3565 21.7089C25.8024 22.2345 25.8024 23.0776 26.3565 23.6033C26.6283 23.8611 26.9942 24 27.3497 24C27.7156 24 28.0711 23.8711 28.3429 23.6033L39.5818 12.941C39.8432 12.693 40 12.3459 40 11.9988C40 11.6516 39.8536 11.3045 39.5818 11.0565L28.3534 0.394256Z" fill="white"/>
</svg>
