<svg width="32" height="32" viewBox="0 0 32 32" fill="none" xmlns="http://www.w3.org/2000/svg">
<g id="bell 2">
<path id="Vector" d="M24 10.668C24 8.54624 23.1571 6.51141 21.6569 5.01111C20.1566 3.51082 18.1217 2.66797 16 2.66797C13.8783 2.66797 11.8434 3.51082 10.3431 5.01111C8.84286 6.51141 8 8.54624 8 10.668C8 20.0013 4 22.668 4 22.668H28C28 22.668 24 20.0013 24 10.668Z" stroke="#322C3C" stroke-width="1.5" stroke-linecap="round" stroke-linejoin="round"/>
<path id="Vector_2" d="M18.3067 28.001C18.0723 28.4051 17.7358 28.7405 17.331 28.9737C16.9262 29.2069 16.4672 29.3296 16 29.3296C15.5329 29.3296 15.0739 29.2069 14.6691 28.9737C14.2642 28.7405 13.9278 28.4051 13.6934 28.001" stroke="#322C3C" stroke-width="1.5" stroke-linecap="round" stroke-linejoin="round"/>
<circle id="Ellipse 2" cx="26" cy="6" r="5.5" fill="#E02020" stroke="white"/>
</g>
</svg>
