<svg width="24" height="24" viewBox="0 0 24 24" fill="none" xmlns="http://www.w3.org/2000/svg">
<g opacity="0.25">
<path fill-rule="evenodd" clip-rule="evenodd" d="M3.51013 3.51098C8.19233 -1.17033 15.8069 -1.17033 20.4891 3.51098C25.1703 8.19229 25.1703 15.809 20.4891 20.4903C18.148 22.8304 15.0746 24 12.0001 24C8.92566 24 5.85123 22.8305 3.51013 20.4903C-1.17004 15.809 -1.17004 8.19229 3.51013 3.51098ZM16.9519 16.9525C17.3431 16.5613 17.3431 15.929 16.9519 15.5378L13.4152 12.0001L16.9518 8.46337C17.343 8.07219 17.343 7.43888 16.9518 7.04869C16.5606 6.65752 15.9283 6.65752 15.5372 7.04869L12.0005 10.5854L8.46388 7.04869C8.07272 6.65752 7.43942 6.65752 7.04924 7.04869C6.65807 7.43888 6.65807 8.07219 7.04924 8.46337L10.5859 12.0001L7.05022 15.5368C6.65905 15.927 6.65905 16.5603 7.05022 16.9515C7.24531 17.1466 7.50146 17.2446 7.75757 17.2446C8.01269 17.2446 8.26884 17.1466 8.46492 16.9515L12.0006 13.4148L15.5372 16.9525C15.7323 17.1476 15.9885 17.2457 16.2446 17.2457C16.5007 17.2457 16.7568 17.1476 16.9519 16.9525Z" fill="#322C3C"/>
</g>
</svg>
