<svg width="48" height="48" viewBox="0 0 48 48" fill="none" xmlns="http://www.w3.org/2000/svg">
<path d="M11.7219 16.3804C11.4883 14.8939 12.6374 13.55 14.1422 13.55H33.8579C35.3627 13.55 36.5118 14.8939 36.2782 16.3804L34.1887 29.6771C33.7569 32.4252 31.389 34.45 28.6072 34.45H19.3929C16.6111 34.45 14.2432 32.4252 13.8113 29.6771L11.7219 16.3804Z" stroke="white" stroke-width="1.5"/>
<path d="M17.6 17.6V17.6C17.6 20.3909 19.1864 23.0513 21.8995 23.7058C22.6297 23.8819 23.3585 24 24 24C24.6416 24 25.3704 23.8819 26.1006 23.7058C28.8137 23.0513 30.4 20.3909 30.4 17.6V17.6" stroke="white" stroke-width="1.5"/>
</svg>
