<svg width="48" height="48" viewBox="0 0 48 48" fill="none" xmlns="http://www.w3.org/2000/svg">
<path d="M24 37.3333C31.3638 37.3333 37.3333 31.3638 37.3333 24C37.3333 16.6362 31.3638 10.6666 24 10.6666C16.6362 10.6666 10.6666 16.6362 10.6666 24C10.6666 31.3638 16.6362 37.3333 24 37.3333Z" stroke="white" stroke-width="1.5" stroke-linecap="round" stroke-linejoin="round"/>
<path d="M18.6667 12H20C17.4 19.7867 17.4 28.2133 20 36H18.6667" stroke="white" stroke-width="1.5" stroke-linecap="round" stroke-linejoin="round"/>
<path d="M28 12C30.6 19.7867 30.6 28.2133 28 36" stroke="white" stroke-width="1.5" stroke-linecap="round" stroke-linejoin="round"/>
<path d="M12 29.3333V28C19.7867 30.6 28.2133 30.6 36 28V29.3333" stroke="white" stroke-width="1.5" stroke-linecap="round" stroke-linejoin="round"/>
<path d="M12 20C19.7867 17.4 28.2133 17.4 36 20" stroke="white" stroke-width="1.5" stroke-linecap="round" stroke-linejoin="round"/>
</svg>
