<svg width="48" height="48" viewBox="0 0 48 48" fill="none" xmlns="http://www.w3.org/2000/svg">
<path d="M12.0133 22.96V28.9466C12.0133 34.9333 14.4133 37.3333 20.4 37.3333H27.5866C33.5733 37.3333 35.9733 34.9333 35.9733 28.9466V22.96" stroke="#322C3C" stroke-width="1.5" stroke-linecap="round" stroke-linejoin="round"/>
<path d="M24 24C26.44 24 28.24 22.0133 28 19.5733L27.12 10.6666H20.8933L20 19.5733C19.76 22.0133 21.56 24 24 24Z" stroke="#322C3C" stroke-width="1.5" stroke-linecap="round" stroke-linejoin="round"/>
<path d="M32.4133 24C35.1066 24 37.08 21.8133 36.8133 19.1333L36.44 15.4666C35.96 12 34.6267 10.6666 31.1333 10.6666H27.0667L28 20.0133C28.2267 22.2133 30.2133 24 32.4133 24Z" stroke="#322C3C" stroke-width="1.5" stroke-linecap="round" stroke-linejoin="round"/>
<path d="M15.52 24C17.72 24 19.7066 22.2133 19.92 20.0133L20.2133 17.0666L20.8533 10.6666H16.7866C13.2933 10.6666 11.96 12 11.48 15.4666L11.12 19.1333C10.8533 21.8133 12.8266 24 15.52 24Z" stroke="#322C3C" stroke-width="1.5" stroke-linecap="round" stroke-linejoin="round"/>
<path d="M24 30.6666C21.7733 30.6666 20.6666 31.7733 20.6666 34V37.3333H27.3333V34C27.3333 31.7733 26.2266 30.6666 24 30.6666Z" stroke="#322C3C" stroke-width="1.5" stroke-linecap="round" stroke-linejoin="round"/>
</svg>
