<svg width="48" height="48" viewBox="0 0 48 48" fill="none" xmlns="http://www.w3.org/2000/svg">
<path d="M10.6666 20V16.6666C10.6666 13.3466 13.3466 10.6666 16.6666 10.6666H20" stroke="#322C3C" stroke-width="1.5" stroke-linecap="round" stroke-linejoin="round"/>
<path d="M28 10.6666H31.3333C34.6533 10.6666 37.3333 13.3466 37.3333 16.6666V20" stroke="#322C3C" stroke-width="1.5" stroke-linecap="round" stroke-linejoin="round"/>
<path d="M37.3334 29.3334V31.3334C37.3334 34.6534 34.6534 37.3334 31.3334 37.3334H29.3334" stroke="#322C3C" stroke-width="1.5" stroke-linecap="round" stroke-linejoin="round"/>
<path d="M20 37.3333H16.6666C13.3466 37.3333 10.6666 34.6533 10.6666 31.3333V28" stroke="#322C3C" stroke-width="1.5" stroke-linecap="round" stroke-linejoin="round"/>
<path d="M19.3333 22.6667C21.1743 22.6667 22.6667 21.1743 22.6667 19.3333C22.6667 17.4924 21.1743 16 19.3333 16C17.4924 16 16 17.4924 16 19.3333C16 21.1743 17.4924 22.6667 19.3333 22.6667Z" stroke="#322C3C" stroke-width="1.5" stroke-linecap="round" stroke-linejoin="round"/>
<path d="M18 32C19.1046 32 20 31.1046 20 30C20 28.8954 19.1046 28 18 28C16.8954 28 16 28.8954 16 30C16 31.1046 16.8954 32 18 32Z" stroke="#322C3C" stroke-width="1.5" stroke-linecap="round" stroke-linejoin="round"/>
<path d="M30 20C31.1046 20 32 19.1046 32 18C32 16.8954 31.1046 16 30 16C28.8954 16 28 16.8954 28 18C28 19.1046 28.8954 20 30 20Z" stroke="#322C3C" stroke-width="1.5" stroke-linecap="round" stroke-linejoin="round"/>
<path d="M28.6667 32C30.5077 32 32 30.5077 32 28.6667C32 26.8258 30.5077 25.3334 28.6667 25.3334C26.8258 25.3334 25.3334 26.8258 25.3334 28.6667C25.3334 30.5077 26.8258 32 28.6667 32Z" stroke="#322C3C" stroke-width="1.5" stroke-linecap="round" stroke-linejoin="round"/>
</svg>
